<svg width="49" height="56" viewBox="0 0 49 56" fill="none" xmlns="http://www.w3.org/2000/svg">
<g clip-path="url(#clip0)">
<path d="M12.9544 28.1727C12.9544 26.6923 11.9259 25.808 10.1126 25.808C9.37241 25.808 8.87183 25.8801 8.60889 25.9502V30.7048C8.92053 30.7748 9.3023 30.8002 9.82624 30.8002C11.7604 30.8002 12.9544 29.8205 12.9544 28.1727Z" fill="#ED4C5C"/>
<path d="M24.1849 25.8548C23.3727 25.8548 22.8468 25.9269 22.5352 25.9989V36.5325C22.8468 36.6046 23.3474 36.6046 23.8013 36.6046C27.0969 36.628 29.2472 34.8126 29.2472 30.9677C29.2726 27.6234 27.3131 25.8548 24.1849 25.8548Z" fill="#ED4C5C"/>
<path d="M45.7024 19.6667H44.3818V13.2955C44.3807 13.2551 44.3768 13.2147 44.3701 13.1748C44.3723 12.9185 44.2816 12.6702 44.115 12.4755L33.5133 0.368129L33.5054 0.360339C33.3708 0.214239 33.1991 0.107235 33.0087 0.0506422L32.9503 0.031164C32.8694 0.010987 32.7864 0.000525528 32.7029 0H6.64752C5.45743 0 4.49133 0.968045 4.49133 2.15619V19.6667H3.17074C1.46839 19.6667 0.0893555 21.0457 0.0893555 22.7481V38.7744C0.0893555 40.4748 1.47033 41.8558 3.17074 41.8558H4.49133V52.8277C4.49133 54.0158 5.45743 54.9839 6.64752 54.9839H42.2256C43.4138 54.9839 44.3818 54.0158 44.3818 52.8277V41.8558H45.7024C47.4047 41.8558 48.7837 40.4748 48.7837 38.7744V22.7481C48.7837 21.0457 47.4028 19.6667 45.7024 19.6667ZM6.64752 2.15619H31.6239V13.1884C31.6239 13.7845 32.1069 14.2655 32.7029 14.2655H42.2276V19.6667H6.64752V2.15619ZM33.1178 30.8469C33.1178 33.9284 31.9959 36.0553 30.4396 37.3681C28.745 38.7763 26.1662 39.4464 23.0127 39.4464C21.1253 39.4464 19.7892 39.3256 18.8795 39.2088V23.3948C20.2176 23.1805 21.961 23.0617 23.8016 23.0617C26.8576 23.0617 28.8405 23.6109 30.3928 24.7815C32.066 26.0223 33.1178 28.0051 33.1178 30.8469ZM4.99971 39.2808V23.3948C6.12162 23.2039 7.69932 23.0617 9.91978 23.0617C12.1655 23.0617 13.7666 23.4921 14.8399 24.3511C15.8663 25.1633 16.5578 26.5014 16.5578 28.0772C16.5578 29.655 16.0338 30.9911 15.0775 31.8987C13.8349 33.0693 11.9961 33.5952 9.84577 33.5952C9.36856 33.5952 8.9381 33.5719 8.60504 33.5232V39.2808H4.99971ZM42.2256 52.2433H6.64752V41.8558H42.2256V52.2433ZM45.3498 26.1665H39.1617V29.8458H44.9428V32.8084H39.1617V39.2808H35.5097V23.1805H45.3498V26.1665Z" fill="#ED4C5C"/>
</g>
<defs>
<clipPath id="clip0">
<rect width="48.8727" height="56" fill="white"/>
</clipPath>
</defs>
</svg>
