<svg width="45" height="56" viewBox="0 0 45 56" fill="none" xmlns="http://www.w3.org/2000/svg">
<g clip-path="url(#clip0)">
<path fill-rule="evenodd" clip-rule="evenodd" d="M23.3082 0.454454L43.7493 7.42055C44.2487 7.595 44.6578 8.16649 44.6457 8.69586V37.7153C44.6457 38.2506 44.3028 38.9485 43.8878 39.2733L23.1519 55.4312C22.9473 55.5936 22.6706 55.6779 22.3939 55.6779C22.1172 55.6779 21.8464 55.5936 21.6359 55.4312L0.900058 39.2733C0.484981 38.9424 0.14209 38.2446 0.14209 37.7153V8.69586C0.14209 8.16649 0.551152 7.58898 1.05045 7.42055L21.4916 0.454454C21.7382 0.370235 22.069 0.328125 22.3999 0.328125C22.7308 0.328125 23.0616 0.370235 23.3082 0.454454ZM22.3999 50.5285L40.3264 36.5603V10.8374L22.3999 4.72555L4.47334 10.8374V36.5603L22.3999 50.5285Z" fill="#ED4C5C"/>
<path fill-rule="evenodd" clip-rule="evenodd" d="M15.8371 29.0106L11.1749 33.6727C11.0854 33.7631 11.0352 33.8853 11.0352 34.0126C11.0352 34.1399 11.0854 34.262 11.1749 34.3524L13.2203 36.3978C13.4068 36.5843 13.7135 36.5843 13.9 36.3978L18.5621 31.7356C21.9128 33.8471 26.3884 33.4441 29.306 30.5265C32.6928 27.1397 32.6928 21.6535 29.306 18.2667C25.9192 14.8799 20.433 14.8799 17.0462 18.2667C14.1286 21.1843 13.7256 25.6659 15.8371 29.0106ZM26.5809 20.9918C24.7041 19.1089 21.6542 19.1089 19.7712 20.9918C17.8883 22.8747 17.8944 25.9186 19.7712 27.8015C21.6481 29.6844 24.698 29.6844 26.5809 27.8015C28.4638 25.9246 28.4638 22.8747 26.5809 20.9918Z" fill="#ED4C5C"/>
</g>
<defs>
<clipPath id="clip0">
<rect width="44.8" height="56" fill="white"/>
</clipPath>
</defs>
</svg>
