<svg width="49" height="56" viewBox="0 0 49 56" fill="none" xmlns="http://www.w3.org/2000/svg">
<g clip-path="url(#clip0)">
<path d="M45.6564 19.6619H44.3346V13.2929C44.3334 13.2524 44.3296 13.2121 44.3229 13.1721C44.3247 12.9163 44.2333 12.6685 44.0656 12.4751L33.4556 0.369949L33.4479 0.362161C33.3843 0.293611 33.3122 0.233417 33.2334 0.183028L33.1632 0.140191C33.0958 0.102764 33.0245 0.0727331 32.9507 0.0506239L32.8922 0.0311533C32.8112 0.0109833 32.7281 0.000525348 32.6446 0H6.5644C5.37318 0 4.40616 0.967712 4.40616 2.15545V19.6599H3.08431C1.38034 19.6599 0 21.0385 0 22.7403V38.7611C0 40.4609 1.38229 41.8414 3.08431 41.8414H4.40616V52.8075C4.40616 53.9953 5.37318 54.963 6.5644 54.963H42.1763C43.3656 54.963 44.3346 53.9953 44.3346 52.8075V41.8414H45.6564C47.3585 41.8414 48.7407 40.4628 48.7407 38.7611V22.7403C48.7407 21.0404 47.3604 19.6619 45.6564 19.6619ZM6.5644 2.15545H31.5645V13.1839C31.5645 13.7797 32.048 14.2606 32.6446 14.2606H42.1783V19.6599H6.5644V2.15545ZM22.7112 31.6892C20.0909 30.7546 18.3616 29.3059 18.3616 27.018C18.3616 24.333 20.631 22.3022 24.3256 22.3022C26.127 22.3022 27.4118 22.6526 28.3476 23.0946L27.5522 25.9432C26.5327 25.4473 25.4127 25.1922 24.2787 25.1975C22.7347 25.1975 21.986 25.9199 21.986 26.7143C21.986 27.7191 22.8497 28.1611 24.9085 28.9321C27.6925 29.9601 28.9773 31.4069 28.9773 33.6265C28.9773 36.2668 26.9673 38.508 22.641 38.508C20.8396 38.508 19.0634 38.0173 18.1745 37.5266L18.8997 34.6079C20.124 35.2322 21.4752 35.5679 22.8497 35.5892C24.4873 35.5892 25.353 34.9097 25.353 33.8835C25.353 32.9023 24.6063 32.3434 22.7112 31.6892ZM4.13906 30.6144C4.13906 25.2656 7.97398 22.3002 12.7428 22.3002C14.591 22.3002 15.9928 22.6721 16.6245 22.9778L15.8758 25.803C14.9288 25.406 13.9102 25.2072 12.8831 25.219C10.0776 25.219 7.8804 26.9226 7.8804 30.4255C7.8804 33.5545 9.7501 35.5406 12.9065 35.5406C14.0061 35.5406 15.1759 35.3323 15.8992 35.0265L16.4159 37.8284C15.7842 38.1302 14.2868 38.506 12.3938 38.506C6.94458 38.508 4.13906 35.0985 4.13906 30.6144ZM42.1763 52.2273H6.5644V41.8433H42.1763V52.2273ZM39.2948 38.2743H35.1323L30.0828 22.5339H33.9878L35.9044 29.191C36.4405 31.0817 36.9318 32.8575 37.3062 34.8182H37.3764C37.775 32.9471 38.2505 31.0932 38.8016 29.2611L40.8135 22.5359H44.5997L39.2948 38.2743Z" fill="#ED4C5C"/>
</g>
<defs>
<clipPath id="clip0">
<rect width="48.7407" height="56" fill="white"/>
</clipPath>
</defs>
</svg>
